# xmcd
#
# Track frame offsets: 
#        150
#        72192
#        100432
#        133745
#        164632
#
# Disc length: 2867 seconds
#
# Revision: 3
# Processed by: cddbd v1.5.2PL0 Copyright (c) Steve Scherf et al.
# Submitted via: ExactAudioCopyFreeDBPlugin 1.0
#
DISCID=470b3105
DTITLE=Isaac Hayes - Joy
DYEAR=1973
DGENRE=R&B
TTITLE0=Joy
TTITLE1=I Love You That's All
TTITLE2=A Man Will Be A Man
TTITLE3=The Feeling Keeps On Coming
TTITLE4=I'm Gonna Make It (Without You)
EXTD=1973 Stax Records YEAR: 1973
EXTT0=
EXTT1=
EXTT2=
EXTT3=
EXTT4=
PLAYORDER=
